<mxfile host="app.diagrams.net" modified="2022-11-10T20:14:46.522Z" agent="5.0 (Macintosh; Intel Mac OS X 10_15_7) AppleWebKit/537.36 (KHTML, like Gecko) Chrome/104.0.5112.114 YaBrowser/22.9.1.1145 Yowser/2.5 Safari/537.36" etag="_W9kofGTqUWVJzT02NeE" version="20.5.3" type="github">
  <diagram id="JApFqgbzi3h7nSJYrHyq" name="Страница 1">
    <mxGraphModel dx="1981" dy="1433" grid="1" gridSize="10" guides="1" tooltips="1" connect="1" arrows="1" fold="1" page="0" pageScale="1" pageWidth="827" pageHeight="1169" math="0" shadow="0">
      <root>
        <mxCell id="0" />
        <mxCell id="1" parent="0" />
        <mxCell id="ArU5SLrHxzi4ZpD2MnbE-1" value="Коктейль" style="swimlane;fontStyle=0;childLayout=stackLayout;horizontal=1;startSize=30;horizontalStack=0;resizeParent=1;resizeParentMax=0;resizeLast=0;collapsible=1;marginBottom=0;whiteSpace=wrap;html=1;" vertex="1" parent="1">
          <mxGeometry x="-70" y="-40" width="370" height="430" as="geometry" />
        </mxCell>
        <mxCell id="ArU5SLrHxzi4ZpD2MnbE-2" value="id (int) - key" style="text;strokeColor=default;fillColor=none;align=left;verticalAlign=middle;spacingLeft=4;spacingRight=4;overflow=hidden;points=[[0,0.5],[1,0.5]];portConstraint=eastwest;rotatable=0;whiteSpace=wrap;html=1;strokeWidth=2;" vertex="1" parent="ArU5SLrHxzi4ZpD2MnbE-1">
          <mxGeometry y="30" width="370" height="30" as="geometry" />
        </mxCell>
        <mxCell id="ArU5SLrHxzi4ZpD2MnbE-3" value="tags ( list[ ptr -&amp;gt; tag ])" style="text;strokeColor=default;fillColor=none;align=left;verticalAlign=middle;spacingLeft=4;spacingRight=4;overflow=hidden;points=[[0,0.5],[1,0.5]];portConstraint=eastwest;rotatable=0;whiteSpace=wrap;html=1;strokeWidth=2;" vertex="1" parent="ArU5SLrHxzi4ZpD2MnbE-1">
          <mxGeometry y="60" width="370" height="30" as="geometry" />
        </mxCell>
        <mxCell id="ArU5SLrHxzi4ZpD2MnbE-4" value="image ( ptr -&amp;gt; .jpg )" style="text;strokeColor=default;fillColor=none;align=left;verticalAlign=middle;spacingLeft=4;spacingRight=4;overflow=hidden;points=[[0,0.5],[1,0.5]];portConstraint=eastwest;rotatable=0;whiteSpace=wrap;html=1;strokeWidth=2;" vertex="1" parent="ArU5SLrHxzi4ZpD2MnbE-1">
          <mxGeometry y="90" width="370" height="30" as="geometry" />
        </mxCell>
        <mxCell id="ArU5SLrHxzi4ZpD2MnbE-5" value="Рецепт ( string ) - (size: 5000)" style="text;strokeColor=default;fillColor=none;align=left;verticalAlign=middle;spacingLeft=4;spacingRight=4;overflow=hidden;points=[[0,0.5],[1,0.5]];portConstraint=eastwest;rotatable=0;whiteSpace=wrap;html=1;strokeWidth=2;" vertex="1" parent="ArU5SLrHxzi4ZpD2MnbE-1">
          <mxGeometry y="120" width="370" height="30" as="geometry" />
        </mxCell>
        <mxCell id="ArU5SLrHxzi4ZpD2MnbE-6" value="Автор (ptr -&amp;gt; пользователь)" style="text;strokeColor=default;fillColor=none;align=left;verticalAlign=middle;spacingLeft=4;spacingRight=4;overflow=hidden;points=[[0,0.5],[1,0.5]];portConstraint=eastwest;rotatable=0;whiteSpace=wrap;html=1;strokeWidth=2;" vertex="1" parent="ArU5SLrHxzi4ZpD2MnbE-1">
          <mxGeometry y="150" width="370" height="30" as="geometry" />
        </mxCell>
        <mxCell id="ArU5SLrHxzi4ZpD2MnbE-7" value="Ед. измерения ( list[ int - enum ] ) - (миллилитр, граммы, штуки)" style="text;strokeColor=default;fillColor=none;align=left;verticalAlign=middle;spacingLeft=4;spacingRight=4;overflow=hidden;points=[[0,0.5],[1,0.5]];portConstraint=eastwest;rotatable=0;whiteSpace=wrap;html=1;strokeWidth=2;" vertex="1" parent="ArU5SLrHxzi4ZpD2MnbE-1">
          <mxGeometry y="180" width="370" height="30" as="geometry" />
        </mxCell>
        <mxCell id="ArU5SLrHxzi4ZpD2MnbE-8" value="Крепость ( int - enum ) - (безалкогольные, слабоалкогольные, крепкие )" style="text;strokeColor=default;fillColor=none;align=left;verticalAlign=middle;spacingLeft=4;spacingRight=4;overflow=hidden;points=[[0,0.5],[1,0.5]];portConstraint=eastwest;rotatable=0;whiteSpace=wrap;html=1;strokeWidth=2;" vertex="1" parent="ArU5SLrHxzi4ZpD2MnbE-1">
          <mxGeometry y="210" width="370" height="40" as="geometry" />
        </mxCell>
        <mxCell id="ArU5SLrHxzi4ZpD2MnbE-9" value="Количества (list [ int ])&amp;nbsp;" style="text;strokeColor=default;fillColor=none;align=left;verticalAlign=middle;spacingLeft=4;spacingRight=4;overflow=hidden;points=[[0,0.5],[1,0.5]];portConstraint=eastwest;rotatable=0;whiteSpace=wrap;html=1;strokeWidth=2;" vertex="1" parent="ArU5SLrHxzi4ZpD2MnbE-1">
          <mxGeometry y="250" width="370" height="30" as="geometry" />
        </mxCell>
        <mxCell id="ArU5SLrHxzi4ZpD2MnbE-10" value="Ингредиенты ( list[ ptr -&amp;gt; ингредиент ] )" style="text;strokeColor=default;fillColor=none;align=left;verticalAlign=middle;spacingLeft=4;spacingRight=4;overflow=hidden;points=[[0,0.5],[1,0.5]];portConstraint=eastwest;rotatable=0;whiteSpace=wrap;html=1;strokeWidth=2;" vertex="1" parent="ArU5SLrHxzi4ZpD2MnbE-1">
          <mxGeometry y="280" width="370" height="30" as="geometry" />
        </mxCell>
        <mxCell id="ArU5SLrHxzi4ZpD2MnbE-11" value="Средняя оценка ( float | None) - (0 - 5)" style="text;strokeColor=default;fillColor=none;align=left;verticalAlign=middle;spacingLeft=4;spacingRight=4;overflow=hidden;points=[[0,0.5],[1,0.5]];portConstraint=eastwest;rotatable=0;whiteSpace=wrap;html=1;strokeWidth=2;" vertex="1" parent="ArU5SLrHxzi4ZpD2MnbE-1">
          <mxGeometry y="310" width="370" height="30" as="geometry" />
        </mxCell>
        <mxCell id="ArU5SLrHxzi4ZpD2MnbE-12" value="Комментарии ( list[ ptr -&amp;gt; коментарий ] )" style="text;strokeColor=default;fillColor=none;align=left;verticalAlign=middle;spacingLeft=4;spacingRight=4;overflow=hidden;points=[[0,0.5],[1,0.5]];portConstraint=eastwest;rotatable=0;whiteSpace=wrap;html=1;strokeWidth=2;" vertex="1" parent="ArU5SLrHxzi4ZpD2MnbE-1">
          <mxGeometry y="340" width="370" height="30" as="geometry" />
        </mxCell>
        <mxCell id="ArU5SLrHxzi4ZpD2MnbE-13" value="Описание ( string | None ) - (size: 500)&amp;nbsp;" style="text;strokeColor=default;fillColor=none;align=left;verticalAlign=middle;spacingLeft=4;spacingRight=4;overflow=hidden;points=[[0,0.5],[1,0.5]];portConstraint=eastwest;rotatable=0;whiteSpace=wrap;html=1;strokeWidth=2;" vertex="1" parent="ArU5SLrHxzi4ZpD2MnbE-1">
          <mxGeometry y="370" width="370" height="30" as="geometry" />
        </mxCell>
        <mxCell id="ArU5SLrHxzi4ZpD2MnbE-14" value="name ( string ) - size: 1 - 170, uniq" style="text;strokeColor=default;fillColor=none;align=left;verticalAlign=middle;spacingLeft=4;spacingRight=4;overflow=hidden;points=[[0,0.5],[1,0.5]];portConstraint=eastwest;rotatable=0;whiteSpace=wrap;html=1;strokeWidth=2;" vertex="1" parent="ArU5SLrHxzi4ZpD2MnbE-1">
          <mxGeometry y="400" width="370" height="30" as="geometry" />
        </mxCell>
        <mxCell id="ArU5SLrHxzi4ZpD2MnbE-15" style="edgeStyle=orthogonalEdgeStyle;rounded=0;orthogonalLoop=1;jettySize=auto;html=1;entryX=0;entryY=0.5;entryDx=0;entryDy=0;strokeWidth=2;jumpStyle=arc;" edge="1" parent="1" source="ArU5SLrHxzi4ZpD2MnbE-4" target="ArU5SLrHxzi4ZpD2MnbE-43">
          <mxGeometry relative="1" as="geometry" />
        </mxCell>
        <mxCell id="ArU5SLrHxzi4ZpD2MnbE-16" style="edgeStyle=orthogonalEdgeStyle;rounded=0;orthogonalLoop=1;jettySize=auto;html=1;entryX=0;entryY=0.5;entryDx=0;entryDy=0;strokeWidth=2;jumpStyle=arc;" edge="1" parent="1" source="ArU5SLrHxzi4ZpD2MnbE-12" target="ArU5SLrHxzi4ZpD2MnbE-30">
          <mxGeometry relative="1" as="geometry" />
        </mxCell>
        <mxCell id="ArU5SLrHxzi4ZpD2MnbE-17" style="edgeStyle=orthogonalEdgeStyle;rounded=0;orthogonalLoop=1;jettySize=auto;html=1;entryX=0;entryY=0.5;entryDx=0;entryDy=0;strokeWidth=2;jumpStyle=arc;" edge="1" parent="1" source="ArU5SLrHxzi4ZpD2MnbE-10" target="ArU5SLrHxzi4ZpD2MnbE-19">
          <mxGeometry relative="1" as="geometry" />
        </mxCell>
        <object label="Ингредиент" id="ArU5SLrHxzi4ZpD2MnbE-18">
          <mxCell style="swimlane;fontStyle=0;childLayout=stackLayout;horizontal=1;startSize=30;horizontalStack=0;resizeParent=1;resizeParentMax=0;resizeLast=0;collapsible=1;marginBottom=0;whiteSpace=wrap;html=1;strokeColor=default;strokeWidth=2;" vertex="1" parent="1">
            <mxGeometry x="630" y="-220" width="280" height="120" as="geometry" />
          </mxCell>
        </object>
        <mxCell id="ArU5SLrHxzi4ZpD2MnbE-19" value="id ( int ) - key" style="text;strokeColor=default;fillColor=none;align=left;verticalAlign=middle;spacingLeft=4;spacingRight=4;overflow=hidden;points=[[0,0.5],[1,0.5]];portConstraint=eastwest;rotatable=0;whiteSpace=wrap;html=1;strokeWidth=2;" vertex="1" parent="ArU5SLrHxzi4ZpD2MnbE-18">
          <mxGeometry y="30" width="280" height="30" as="geometry" />
        </mxCell>
        <mxCell id="ArU5SLrHxzi4ZpD2MnbE-20" value="name ( string ) - size: 1 - 170, uniq" style="text;strokeColor=default;fillColor=none;align=left;verticalAlign=middle;spacingLeft=4;spacingRight=4;overflow=hidden;points=[[0,0.5],[1,0.5]];portConstraint=eastwest;rotatable=0;whiteSpace=wrap;html=1;strokeWidth=2;" vertex="1" parent="ArU5SLrHxzi4ZpD2MnbE-18">
          <mxGeometry y="60" width="280" height="30" as="geometry" />
        </mxCell>
        <mxCell id="ArU5SLrHxzi4ZpD2MnbE-21" value="image (ptr -&amp;gt; .jpg)" style="text;strokeColor=default;fillColor=none;align=left;verticalAlign=middle;spacingLeft=4;spacingRight=4;overflow=hidden;points=[[0,0.5],[1,0.5]];portConstraint=eastwest;rotatable=0;whiteSpace=wrap;html=1;strokeWidth=2;" vertex="1" parent="ArU5SLrHxzi4ZpD2MnbE-18">
          <mxGeometry y="90" width="280" height="30" as="geometry" />
        </mxCell>
        <mxCell id="ArU5SLrHxzi4ZpD2MnbE-22" style="rounded=0;jumpStyle=arc;orthogonalLoop=1;jettySize=auto;html=1;entryX=1;entryY=0.5;entryDx=0;entryDy=0;strokeWidth=2;edgeStyle=orthogonalEdgeStyle;" edge="1" parent="1" source="ArU5SLrHxzi4ZpD2MnbE-23" target="ArU5SLrHxzi4ZpD2MnbE-2">
          <mxGeometry relative="1" as="geometry">
            <Array as="points">
              <mxPoint x="520" y="-85" />
              <mxPoint x="520" y="5" />
            </Array>
          </mxGeometry>
        </mxCell>
        <mxCell id="ArU5SLrHxzi4ZpD2MnbE-23" value="Коктейли ( list[ ptr -&amp;gt; коктейль ])" style="text;strokeColor=default;fillColor=none;align=left;verticalAlign=middle;spacingLeft=4;spacingRight=4;overflow=hidden;points=[[0,0.5],[1,0.5]];portConstraint=eastwest;rotatable=0;whiteSpace=wrap;html=1;strokeWidth=2;" vertex="1" parent="1">
          <mxGeometry x="630" y="-100" width="280" height="30" as="geometry" />
        </mxCell>
        <mxCell id="ArU5SLrHxzi4ZpD2MnbE-24" value="Описание ( string | None ) - (size: 500)" style="text;strokeColor=default;fillColor=none;align=left;verticalAlign=middle;spacingLeft=4;spacingRight=4;overflow=hidden;points=[[0,0.5],[1,0.5]];portConstraint=eastwest;rotatable=0;whiteSpace=wrap;html=1;strokeWidth=2;" vertex="1" parent="1">
          <mxGeometry x="630" y="-70" width="280" height="30" as="geometry" />
        </mxCell>
        <mxCell id="ArU5SLrHxzi4ZpD2MnbE-25" value="Тэг" style="swimlane;fontStyle=0;childLayout=stackLayout;horizontal=1;startSize=30;horizontalStack=0;resizeParent=1;resizeParentMax=0;resizeLast=0;collapsible=1;marginBottom=0;whiteSpace=wrap;html=1;strokeColor=default;strokeWidth=2;" vertex="1" parent="1">
          <mxGeometry x="640" y="65" width="280" height="120" as="geometry" />
        </mxCell>
        <mxCell id="ArU5SLrHxzi4ZpD2MnbE-26" value="id ( int ) - key" style="text;strokeColor=default;fillColor=none;align=left;verticalAlign=middle;spacingLeft=4;spacingRight=4;overflow=hidden;points=[[0,0.5],[1,0.5]];portConstraint=eastwest;rotatable=0;whiteSpace=wrap;html=1;strokeWidth=2;" vertex="1" parent="ArU5SLrHxzi4ZpD2MnbE-25">
          <mxGeometry y="30" width="280" height="30" as="geometry" />
        </mxCell>
        <mxCell id="ArU5SLrHxzi4ZpD2MnbE-27" value="name ( string ) - size: 1 - 50, uniq" style="text;strokeColor=default;fillColor=none;align=left;verticalAlign=middle;spacingLeft=4;spacingRight=4;overflow=hidden;points=[[0,0.5],[1,0.5]];portConstraint=eastwest;rotatable=0;whiteSpace=wrap;html=1;strokeWidth=2;" vertex="1" parent="ArU5SLrHxzi4ZpD2MnbE-25">
          <mxGeometry y="60" width="280" height="30" as="geometry" />
        </mxCell>
        <mxCell id="ArU5SLrHxzi4ZpD2MnbE-28" value="Коктейли (list[ ptr -&amp;gt; коктейль ])" style="text;strokeColor=default;fillColor=none;align=left;verticalAlign=middle;spacingLeft=4;spacingRight=4;overflow=hidden;points=[[0,0.5],[1,0.5]];portConstraint=eastwest;rotatable=0;whiteSpace=wrap;html=1;strokeWidth=2;" vertex="1" parent="ArU5SLrHxzi4ZpD2MnbE-25">
          <mxGeometry y="90" width="280" height="30" as="geometry" />
        </mxCell>
        <mxCell id="ArU5SLrHxzi4ZpD2MnbE-29" value="Отзыв" style="swimlane;fontStyle=0;childLayout=stackLayout;horizontal=1;startSize=30;horizontalStack=0;resizeParent=1;resizeParentMax=0;resizeLast=0;collapsible=1;marginBottom=0;whiteSpace=wrap;html=1;strokeColor=default;strokeWidth=2;" vertex="1" parent="1">
          <mxGeometry x="-220" y="540" width="280" height="150" as="geometry" />
        </mxCell>
        <mxCell id="ArU5SLrHxzi4ZpD2MnbE-30" value="id ( int ) - key" style="text;strokeColor=default;fillColor=none;align=left;verticalAlign=middle;spacingLeft=4;spacingRight=4;overflow=hidden;points=[[0,0.5],[1,0.5]];portConstraint=eastwest;rotatable=0;whiteSpace=wrap;html=1;strokeWidth=2;" vertex="1" parent="ArU5SLrHxzi4ZpD2MnbE-29">
          <mxGeometry y="30" width="280" height="30" as="geometry" />
        </mxCell>
        <mxCell id="ArU5SLrHxzi4ZpD2MnbE-31" value="text ( string ) - size: 1-1000" style="text;strokeColor=default;fillColor=none;align=left;verticalAlign=middle;spacingLeft=4;spacingRight=4;overflow=hidden;points=[[0,0.5],[1,0.5]];portConstraint=eastwest;rotatable=0;whiteSpace=wrap;html=1;strokeWidth=2;" vertex="1" parent="ArU5SLrHxzi4ZpD2MnbE-29">
          <mxGeometry y="60" width="280" height="30" as="geometry" />
        </mxCell>
        <mxCell id="ArU5SLrHxzi4ZpD2MnbE-32" value="rating (int - enum) - (1, 2, 3, 4, 5)" style="text;strokeColor=default;fillColor=none;align=left;verticalAlign=middle;spacingLeft=4;spacingRight=4;overflow=hidden;points=[[0,0.5],[1,0.5]];portConstraint=eastwest;rotatable=0;whiteSpace=wrap;html=1;strokeWidth=2;" vertex="1" parent="ArU5SLrHxzi4ZpD2MnbE-29">
          <mxGeometry y="90" width="280" height="30" as="geometry" />
        </mxCell>
        <mxCell id="ArU5SLrHxzi4ZpD2MnbE-33" value="author (ptr -&amp;gt; пользователь)&amp;nbsp;" style="text;strokeColor=default;fillColor=none;align=left;verticalAlign=middle;spacingLeft=4;spacingRight=4;overflow=hidden;points=[[0,0.5],[1,0.5]];portConstraint=eastwest;rotatable=0;whiteSpace=wrap;html=1;strokeWidth=2;" vertex="1" parent="ArU5SLrHxzi4ZpD2MnbE-29">
          <mxGeometry y="120" width="280" height="30" as="geometry" />
        </mxCell>
        <mxCell id="ArU5SLrHxzi4ZpD2MnbE-34" style="edgeStyle=orthogonalEdgeStyle;rounded=0;orthogonalLoop=1;jettySize=auto;html=1;entryX=0;entryY=0.5;entryDx=0;entryDy=0;strokeWidth=2;jumpStyle=arc;" edge="1" parent="1" source="ArU5SLrHxzi4ZpD2MnbE-33" target="ArU5SLrHxzi4ZpD2MnbE-36">
          <mxGeometry relative="1" as="geometry" />
        </mxCell>
        <mxCell id="ArU5SLrHxzi4ZpD2MnbE-35" value="Алкоголик" style="swimlane;fontStyle=0;childLayout=stackLayout;horizontal=1;startSize=30;horizontalStack=0;resizeParent=1;resizeParentMax=0;resizeLast=0;collapsible=1;marginBottom=0;whiteSpace=wrap;html=1;strokeColor=default;strokeWidth=2;" vertex="1" parent="1">
          <mxGeometry x="210" y="540" width="280" height="180" as="geometry" />
        </mxCell>
        <mxCell id="ArU5SLrHxzi4ZpD2MnbE-36" value="id ( int ) - key" style="text;strokeColor=default;fillColor=none;align=left;verticalAlign=middle;spacingLeft=4;spacingRight=4;overflow=hidden;points=[[0,0.5],[1,0.5]];portConstraint=eastwest;rotatable=0;whiteSpace=wrap;html=1;strokeWidth=2;" vertex="1" parent="ArU5SLrHxzi4ZpD2MnbE-35">
          <mxGeometry y="30" width="280" height="30" as="geometry" />
        </mxCell>
        <mxCell id="ArU5SLrHxzi4ZpD2MnbE-37" value="login ( string ) - size: 1-50, uniq" style="text;strokeColor=default;fillColor=none;align=left;verticalAlign=middle;spacingLeft=4;spacingRight=4;overflow=hidden;points=[[0,0.5],[1,0.5]];portConstraint=eastwest;rotatable=0;whiteSpace=wrap;html=1;strokeWidth=2;" vertex="1" parent="ArU5SLrHxzi4ZpD2MnbE-35">
          <mxGeometry y="60" width="280" height="30" as="geometry" />
        </mxCell>
        <mxCell id="ArU5SLrHxzi4ZpD2MnbE-38" value="hashed password ( string )" style="text;strokeColor=default;fillColor=none;align=left;verticalAlign=middle;spacingLeft=4;spacingRight=4;overflow=hidden;points=[[0,0.5],[1,0.5]];portConstraint=eastwest;rotatable=0;whiteSpace=wrap;html=1;strokeWidth=2;" vertex="1" parent="ArU5SLrHxzi4ZpD2MnbE-35">
          <mxGeometry y="90" width="280" height="30" as="geometry" />
        </mxCell>
        <mxCell id="ArU5SLrHxzi4ZpD2MnbE-39" value="name ( string ) - size: 1-50" style="text;strokeColor=default;fillColor=none;align=left;verticalAlign=middle;spacingLeft=4;spacingRight=4;overflow=hidden;points=[[0,0.5],[1,0.5]];portConstraint=eastwest;rotatable=0;whiteSpace=wrap;html=1;strokeWidth=2;" vertex="1" parent="ArU5SLrHxzi4ZpD2MnbE-35">
          <mxGeometry y="120" width="280" height="30" as="geometry" />
        </mxCell>
        <mxCell id="ArU5SLrHxzi4ZpD2MnbE-40" value="image (ptr -&amp;gt; .jpg)" style="text;strokeColor=default;fillColor=none;align=left;verticalAlign=middle;spacingLeft=4;spacingRight=4;overflow=hidden;points=[[0,0.5],[1,0.5]];portConstraint=eastwest;rotatable=0;whiteSpace=wrap;html=1;strokeWidth=2;" vertex="1" parent="ArU5SLrHxzi4ZpD2MnbE-35">
          <mxGeometry y="150" width="280" height="30" as="geometry" />
        </mxCell>
        <mxCell id="ArU5SLrHxzi4ZpD2MnbE-41" style="edgeStyle=orthogonalEdgeStyle;rounded=0;orthogonalLoop=1;jettySize=auto;html=1;entryX=1;entryY=0.5;entryDx=0;entryDy=0;strokeWidth=2;jumpStyle=arc;" edge="1" parent="1" source="ArU5SLrHxzi4ZpD2MnbE-6" target="ArU5SLrHxzi4ZpD2MnbE-36">
          <mxGeometry relative="1" as="geometry" />
        </mxCell>
        <mxCell id="ArU5SLrHxzi4ZpD2MnbE-42" value="Картинка" style="swimlane;fontStyle=0;childLayout=stackLayout;horizontal=1;startSize=30;horizontalStack=0;resizeParent=1;resizeParentMax=0;resizeLast=0;collapsible=1;marginBottom=0;whiteSpace=wrap;html=1;strokeColor=default;strokeWidth=2;" vertex="1" parent="1">
          <mxGeometry x="570" y="410" width="280" height="90" as="geometry" />
        </mxCell>
        <mxCell id="ArU5SLrHxzi4ZpD2MnbE-43" value="id ( int ) - key" style="text;strokeColor=default;fillColor=none;align=left;verticalAlign=middle;spacingLeft=4;spacingRight=4;overflow=hidden;points=[[0,0.5],[1,0.5]];portConstraint=eastwest;rotatable=0;whiteSpace=wrap;html=1;strokeWidth=2;" vertex="1" parent="ArU5SLrHxzi4ZpD2MnbE-42">
          <mxGeometry y="30" width="280" height="30" as="geometry" />
        </mxCell>
        <mxCell id="ArU5SLrHxzi4ZpD2MnbE-44" value="Картинка ( img ) - 512 x 512" style="text;strokeColor=default;fillColor=none;align=left;verticalAlign=middle;spacingLeft=4;spacingRight=4;overflow=hidden;points=[[0,0.5],[1,0.5]];portConstraint=eastwest;rotatable=0;whiteSpace=wrap;html=1;strokeWidth=2;" vertex="1" parent="ArU5SLrHxzi4ZpD2MnbE-42">
          <mxGeometry y="60" width="280" height="30" as="geometry" />
        </mxCell>
        <mxCell id="ArU5SLrHxzi4ZpD2MnbE-45" style="edgeStyle=orthogonalEdgeStyle;rounded=0;jumpStyle=arc;orthogonalLoop=1;jettySize=auto;html=1;entryX=0;entryY=0.5;entryDx=0;entryDy=0;strokeWidth=2;" edge="1" parent="1" source="ArU5SLrHxzi4ZpD2MnbE-3" target="ArU5SLrHxzi4ZpD2MnbE-26">
          <mxGeometry relative="1" as="geometry">
            <Array as="points">
              <mxPoint x="510" y="35" />
              <mxPoint x="510" y="110" />
            </Array>
          </mxGeometry>
        </mxCell>
      </root>
    </mxGraphModel>
  </diagram>
</mxfile>
